<svg xmlns="http://www.w3.org/2000/svg" version="1.0" viewBox="0 0 1100 500"><defs><clipPath id="a"><path d="M.672 5H339v351H.672Zm0 0"/></clipPath><clipPath id="b"><path d="M.672 0h1774.652v658H.672Zm0 0"/></clipPath></defs><g clip-path="url(#a)"><path fill="#ffffff" d="M295.71 82.887c-33.296 1.058-69.983 27.84-69.983 27.84-3.625-19.446 7.718-41.66 8.449-50.137.648-7.656-7.332-21.746-25.656-7.184-17.887 14.215-24.11 45.438-24.11 45.438-10.851-9.094-19.469-38.867-23.965-67.13-.629-3.925-3.843-25.343-15.07-26.01-13.133-.774-25.684 19.073-26.629 41.495-1.32 31.125 19.32 63.117 19.32 63.117-5.367-.398-17.972-6.265-25.171-10.273-6.895-3.848-13.2-9.953-21.196-11.07-7.996-1.118-14.785 4.382-12.785 14.3 2.856 14.176 25.879 32.082 25.879 32.082-16.488-1.695-51.3-3.035-72.133 1.82C4.707 143.712.672 152.849.672 161.72c0 7.504 9.023 20.078 36.77 27.21 40.828 10.5 76.335-3.827 76.335-3.827-8.664 4.136-16.172 13.46-22.96 26.433-6.79 12.965-12.653 31.567-20.59 45.633-4.391 7.777-13.122 21.098-8.258 31.227 5.547 11.574 18.054 9.64 29.879 3.832 15.941-7.825 35.773-42.793 44.78-45.329.794 9.293-3.882 31.942-2.046 41.16 1.883 9.473 10.273 9.774 14.883 7.114 9.863-5.684 20.027-35.203 20.027-35.203s-.137 27.617 4.059 48.82c2.453 12.363 13.238 46.473 28.047 46.473 16.882 0 18.765-40.785 19.543-69.633.789-28.992-1.036-48-1.036-48s15.477-1.957 41.122 22.73c26.12 25.16 49.84 30.961 59.507 22.754 7.192-6.101 9.938-20.183-13.222-51.703-23.254-31.648-45.473-43.87-45.473-43.87 5.73.831 23.383 3.776 34.246 3.288 10.86-.48 18.438-3.41 18.438-12.851 0-19.188-50.684-30.61-50.684-30.61 9.899-12.289 48.188-22.047 60.875-28.281 12.008-5.89 14.996-12.148 13.805-18.602-.875-4.73-9.703-18.652-43-17.597Zm-138.022 45.347c2.097-9.449 11.16-14.336 21.597-15.308 10.442-.977 21.598 3.004 23.871 12.566 2.262 9.563-7.922 16.98-22.894 19.094-14.024 1.98-25.117-4.89-22.575-16.36Zm-27.274 19.516c4.582-5.133 12.637-8.012 18.73-2.969 6.094 5.04 6.723 13.887.516 21.434-6.21 7.539-16.8 7.855-21.89 2.265s-1.934-15.605 2.644-20.73Zm19.848 78.996c-10.637 4.68-22.403-3.476-25.293-15.062-2.942-11.766 2.77-22.954 10.46-25.391 9.75-3.094 18.563 2.07 23.669 13.691 4.8 10.93 2.359 21.84-8.844 26.762Zm42.453 11.77c-7.809 1.64-17.274-.168-19.477-7.903-2.644-9.277 3.582-15.918 13.953-18.058 10.371-2.145 18.555 4.53 18.895 11.082.344 6.55-5.563 13.242-13.371 14.879Zm15.16-51.45c-4.914 13.75-20.742 18.512-32.84 12.903-11.594-4.899-17.496-16.637-13.375-30.297 3.477-11.55 16.45-19.352 29.52-15.395 14.132 4.282 21.93 19.735 16.695 32.79Zm4.73-45.957c5.59-5.37 14.997-5.898 21.75-.703 6.817 5.246 7.598 14.492 3.782 18.938-4.098 4.765-13.024 7.855-20.235 2.16-8.52-6.723-10.879-15.02-5.289-20.395Zm37.122 61.313c-1.77 10.418-11.852 20.488-22.45 18.879-10.593-1.63-17.175-15.32-11.972-29.028 5.199-13.707 15.257-18.171 24.316-14.253 9.375 4.062 11.863 13.984 10.106 24.402Zm0 0"/></g><path fill="#ffffff" d="M1087.633 90.68h-.024c-5.523-1.852-12.168-2.067-17.714-2.067-21.899 0-27.864 5.996-36.489 34.528l-15.531 69.09c-3.453 12.761-14.05 19.515-19.238 19.515-8.633 0-15.79-6.004-20.098-19.516l-18.992-81.097c-4.317-15.012-17.137-22.52-31.805-22.52h-11.594c-12.082 0-28.351 5.996-17.132 34.528l54.363 138.84c6.043 17.265 21.578 24.03 31.933 24.03h19.856c16.387 0 27.605-8.257 34.508-25.523l48.023-120.8v-.07l6.004-15.333c11.211-29.57-6.055-33.59-6.078-33.597ZM788.469 88.598c-64.895 0-81.93 27.879-81.93 41.078 0 12.469 12.164 14.672 23.527 14.672 34.067 0 31.625-24.207 62.457-24.207 15.407 0 28.387 9.539 28.387 24.207 0 8.07-8.117 17.605-34.887 20.543-65.703 8.07-94.882 33.004-94.882 66.015 0 33.012 24.324 55.75 69.75 55.75 27.586 0 40.543-11.734 59.203-11.734 10.543 0 18.66 6.601 35.695 6.601 13.79 0 23.524-3.664 23.524-18.34V153.16c0-52.812-34.067-64.547-90.836-64.547Zm-8.86 160.37c-17.664 0-28.906-10.898-28.906-23.238 0-20.332 33.727-30.503 50.594-30.503 14.45 0 20.07 7.988 20.07 17.433 0 18.883-20.87 36.3-41.75 36.3ZM418.563 88.605h-12.981c-12.973 0-23.523 11.356-23.523 25.954v162.976c0 14.399-2.801 23.797-16.18 33.899-7.195 5.425-11.399 13.078-11.399 23.425 0 21.188 13.473 26.098 27.024 26.098 24.012 0 38.426-10.824 46.3-19.41 0 0-.007-.016-.015-.016a60.11 60.11 0 0 0 15.918-40.73V118.613c0-20.289-8.11-30.008-25.144-30.008ZM443.145 9.645c-5.915-7.711-15.762-9.758-27.903-9.758-22.168 0-31.594 6.168-35.492 14.238-1.977 3.727-3.117 8.313-3.117 13.984 0 13.68 3.914 28.344 38.125 28.344 18.57 0 34.21-6.84 34.21-29.324 0-6.535-1.566-12.68-5.808-17.484ZM649.906-.113H638.47c-7.367 0-13.828 3.851-17.5 9.758h-.035c-.04.074-.063.156-.098.234a21.403 21.403 0 0 0-3.082 11.129l-.035 51.531c-.817 15.398-4.055 21.934-16.227 21.934-14.605 0-22.707-5.868-47.054-5.868-34.88 0-86.793 20.903-86.793 99.391s53.546 98.652 87.601 98.652c30.02 0 32.45-10.265 52.73-10.265 12.973 0 17.032 5.867 37.305 5.867 18.653 0 26.77-8.07 26.77-23.473V24.305c0-16.504-7.14-24.418-22.145-24.418Zm-81.222 246.039c-22.004 0-44.79-17.469-44.79-59.871 0-50.61 31.442-59.88 47.149-59.88 26.73 0 45.582 18.848 45.582 57.141 0 35.57-14.93 62.61-47.941 62.61Zm0 0"/><g clip-path="url(#b)"><path fill="none" stroke="#00ff36" stroke-miterlimit="10" stroke-width="7.494300000000001" d="M-2343.672-335.395h4536.778v2647.583h-4536.778Zm0 0"/></g><path fill="#ffffff" d="M518.398 353.53c10.395 0 18.317 2.118 23.766 6.344 5.457 4.23 8.187 11.188 8.187 20.875 0 6.324-1.023 11.246-3.062 14.766-2.031 3.511-5.137 6.437-9.313 8.781 4.477 1.73 8.094 4.406 10.844 8.031 2.758 3.617 4.14 9.043 4.14 16.281 0 10.7-3.011 18.32-9.03 22.86-6.012 4.531-14.118 6.797-24.313 6.797h-40.969V353.53Zm-22.781 14.688v29.953H518.1c5.196 0 8.989-1.297 11.375-3.89 2.395-2.602 3.594-6.454 3.594-11.548 0-5.093-1.305-8.785-3.906-11.078-2.594-2.289-6.492-3.437-11.688-3.437Zm0 44.328v31.047h23.094c5.3 0 9.425-1.094 12.375-3.281 2.957-2.196 4.437-6.407 4.437-12.625 0-3.977-.844-7.063-2.531-9.25-1.68-2.188-3.844-3.711-6.5-4.579a25.632 25.632 0 0 0-8.094-1.312ZM626.791 440.218c.207 2.25.82 3.914 1.844 4.984 1.02 1.063 2.648 1.746 4.89 2.047l-.468 12.703c-4.688 0-8.54-.386-11.547-1.156-3-.758-5.93-2.258-8.781-4.5 0 0-1.2.484-3.594 1.453-2.398.969-5.453 1.914-9.172 2.828-3.719.914-7.668 1.375-11.844 1.375-15.187 0-22.78-8.101-22.78-24.312 0-8.157 2.16-13.864 6.483-17.125 4.332-3.258 10.579-5.25 18.735-5.969l19.719-1.672v-5.516c0-4.175-.918-7.05-2.75-8.625-1.836-1.582-4.637-2.375-8.407-2.375-2.543 0-5.449.079-8.718.235-3.262.148-6.422.324-9.485.531-3.054.2-5.574.375-7.562.531l-2.97.235-.624-11.782 2.75-.609c1.844-.406 4.289-.863 7.344-1.375 3.062-.508 6.398-.969 10.015-1.375a95.35 95.35 0 0 1 10.625-.61c9.375 0 16.098 2.016 20.172 6.048 4.082 4.023 6.125 10.414 6.125 19.171Zm-34.25-15.89c-7.031.605-10.547 4.218-10.547 10.843 0 3.469.766 6.2 2.297 8.187 1.531 1.993 3.875 2.985 7.031 2.985 2.957 0 5.891-.281 8.797-.844 2.907-.562 5.32-1.125 7.25-1.687l2.907-.844V422.64Zm0 0"/><g fill="#ffffff"><path d="m657.069 381.812 16.203 62.234h4.125l16.203-62.234h16.516L681.069 491.14h-16.36l9.172-32.875h-13.14l-20.031-76.453ZM753.538 445.421c3.05 0 6.207-.07 9.469-.219 3.27-.156 6.304-.312 9.109-.469 2.8-.156 5.094-.304 6.875-.453l2.672-.234.312 12.39s-.968.18-2.906.532c-1.937.355-4.437.762-7.5 1.219-3.055.457-6.39.863-10.016 1.218-3.617.364-7.105.547-10.468.547-11.418 0-19.575-3.16-24.469-9.484-4.887-6.32-7.328-16.207-7.328-29.656 0-13.97 2.898-24.239 8.703-30.813 5.812-6.57 13.969-9.86 24.469-9.86 10.707 0 18.734 2.856 24.078 8.563 5.351 5.711 8.031 14.528 8.031 26.453l-1.062 11.922H736.1c.102 6.117 1.453 10.703 4.047 13.766 2.602 3.055 7.067 4.578 13.39 4.578Zm14.672-31.188c0-7.644-1.227-12.94-3.672-15.89-2.45-2.957-6.477-4.438-12.078-4.438-5.606 0-9.735 1.555-12.39 4.657-2.65 3.105-4.017 8.328-4.11 15.671Zm0 0"/></g><path fill="#ffffff" d="M800.625 381.812h16.515v9.187l3.813-2.219c2.55-1.476 5.812-3.082 9.781-4.812a57.712 57.712 0 0 1 12.39-3.828v16.656c-4.585.918-8.84 2.016-12.765 3.297-3.93 1.273-7.09 2.39-9.484 3.36-2.399.968-3.594 1.452-3.594 1.452v53.36h-16.656ZM855.816 458.265v-76.453h16.515v4.75l3.204-1.61c2.144-1.07 4.847-2.14 8.109-3.203 3.258-1.07 6.52-1.61 9.781-1.61 7.133 0 12.586 1.352 16.36 4.048 3.77 2.699 6.394 6.804 7.875 12.312 1.476 5.5 2.218 12.434 2.218 20.797v40.969h-16.515v-40.516c0-7.644-.82-13.351-2.453-17.125-1.625-3.77-5.344-5.656-11.157-5.656-2.96 0-5.765.336-8.422 1-2.648.656-4.789 1.32-6.421 1.984l-2.438.985v59.328Zm0 0"/></svg>