<svg xmlns="http://www.w3.org/2000/svg" version="1.1" xmlns:xlink="http://www.w3.org/1999/xlink" xmlns:svgjs="http://svgjs.dev/svgjs" width="360" height="360"><svg xmlns="http://www.w3.org/2000/svg" version="1.0" viewBox="0 0 360 360"><defs><clipPath id="SvgjsClipPath1041"><path d="M.672 5H339v351H.672Zm0 0"></path></clipPath><clipPath id="SvgjsClipPath1040"><path d="M.672 0h1774.652v658H.672Zm0 0"></path></clipPath></defs><g clip-path="url(#a)"><path fill="#707680" d="M295.71 82.887c-33.296 1.058-69.983 27.84-69.983 27.84-3.625-19.446 7.718-41.66 8.449-50.137.648-7.656-7.332-21.746-25.656-7.184-17.887 14.215-24.11 45.438-24.11 45.438-10.851-9.094-19.469-38.867-23.965-67.13-.629-3.925-3.843-25.343-15.07-26.01-13.133-.774-25.684 19.073-26.629 41.495-1.32 31.125 19.32 63.117 19.32 63.117-5.367-.398-17.972-6.265-25.171-10.273-6.895-3.848-13.2-9.953-21.196-11.07-7.996-1.118-14.785 4.382-12.785 14.3 2.856 14.176 25.879 32.082 25.879 32.082-16.488-1.695-51.3-3.035-72.133 1.82C4.707 143.712.672 152.849.672 161.72c0 7.504 9.023 20.078 36.77 27.21 40.828 10.5 76.335-3.827 76.335-3.827-8.664 4.136-16.172 13.46-22.96 26.433-6.79 12.965-12.653 31.567-20.59 45.633-4.391 7.777-13.122 21.098-8.258 31.227 5.547 11.574 18.054 9.64 29.879 3.832 15.941-7.825 35.773-42.793 44.78-45.329.794 9.293-3.882 31.942-2.046 41.16 1.883 9.473 10.273 9.774 14.883 7.114 9.863-5.684 20.027-35.203 20.027-35.203s-.137 27.617 4.059 48.82c2.453 12.363 13.238 46.473 28.047 46.473 16.882 0 18.765-40.785 19.543-69.633.789-28.992-1.036-48-1.036-48s15.477-1.957 41.122 22.73c26.12 25.16 49.84 30.961 59.507 22.754 7.192-6.101 9.938-20.183-13.222-51.703-23.254-31.648-45.473-43.87-45.473-43.87 5.73.831 23.383 3.776 34.246 3.288 10.86-.48 18.438-3.41 18.438-12.851 0-19.188-50.684-30.61-50.684-30.61 9.899-12.289 48.188-22.047 60.875-28.281 12.008-5.89 14.996-12.148 13.805-18.602-.875-4.73-9.703-18.652-43-17.597Zm-138.022 45.347c2.097-9.449 11.16-14.336 21.597-15.308 10.442-.977 21.598 3.004 23.871 12.566 2.262 9.563-7.922 16.98-22.894 19.094-14.024 1.98-25.117-4.89-22.575-16.36Zm-27.274 19.516c4.582-5.133 12.637-8.012 18.73-2.969 6.094 5.04 6.723 13.887.516 21.434-6.21 7.539-16.8 7.855-21.89 2.265s-1.934-15.605 2.644-20.73Zm19.848 78.996c-10.637 4.68-22.403-3.476-25.293-15.062-2.942-11.766 2.77-22.954 10.46-25.391 9.75-3.094 18.563 2.07 23.669 13.691 4.8 10.93 2.359 21.84-8.844 26.762Zm42.453 11.77c-7.809 1.64-17.274-.168-19.477-7.903-2.644-9.277 3.582-15.918 13.953-18.058 10.371-2.145 18.555 4.53 18.895 11.082.344 6.55-5.563 13.242-13.371 14.879Zm15.16-51.45c-4.914 13.75-20.742 18.512-32.84 12.903-11.594-4.899-17.496-16.637-13.375-30.297 3.477-11.55 16.45-19.352 29.52-15.395 14.132 4.282 21.93 19.735 16.695 32.79Zm4.73-45.957c5.59-5.37 14.997-5.898 21.75-.703 6.817 5.246 7.598 14.492 3.782 18.938-4.098 4.765-13.024 7.855-20.235 2.16-8.52-6.723-10.879-15.02-5.289-20.395Zm37.122 61.313c-1.77 10.418-11.852 20.488-22.45 18.879-10.593-1.63-17.175-15.32-11.972-29.028 5.199-13.707 15.257-18.171 24.316-14.253 9.375 4.062 11.863 13.984 10.106 24.402Zm0 0"></path></g></svg><style>@media (prefers-color-scheme: light) { :root { filter: none; } }
@media (prefers-color-scheme: dark) { :root { filter: none; } }
</style></svg>