<?xml version="1.0" encoding="utf-8"?>
<!-- Generator: Adobe Illustrator 15.1.0, SVG Export Plug-In . SVG Version: 6.00 Build 0)  -->
<!DOCTYPE svg PUBLIC "-//W3C//DTD SVG 1.1//EN" "http://www.w3.org/Graphics/SVG/1.1/DTD/svg11.dtd">
<svg version="1.1" id="jdav_x5F_Logo" xmlns="http://www.w3.org/2000/svg" xmlns:xlink="http://www.w3.org/1999/xlink" x="0px"
	 y="0px" width="283.465px" height="145.701px" viewBox="0 0 283.465 145.701" enable-background="new 0 0 283.465 145.701"
	 xml:space="preserve">
<rect fill="#FFFFFF" width="283.464" height="145.701"/>
<path fill="#57AB27" d="M53.234,62.267c1.158-2.888-0.566-6.306-3.693-7.252c-2.893-0.875-5.762,0.85-6.531,3.405
	c-0.91,3.021,0.396,5.617,2.958,6.703C48.645,66.362,52.146,65.312,53.234,62.267z M48.659,67.905
	c-2.294,0.473-3.671,1.941-3.086,3.996c0.487,1.709,2.58,2.109,4.307,1.746c1.729-0.361,3.034-1.842,2.958-3.291
	S50.954,67.431,48.659,67.905z M55.451,56.612c1.594,1.259,3.569,0.576,4.478-0.478c0.842-0.981,0.672-3.029-0.839-4.188
	c-1.494-1.15-3.573-1.034-4.81,0.156C53.043,53.29,53.565,55.125,55.451,56.612z M54.877,63.417
	c-1.15,3.035,0.305,6.062,2.649,6.422c2.344,0.357,4.574-1.873,4.964-4.176c0.391-2.303-0.16-4.5-2.234-5.398
	C58.253,59.396,56.029,60.385,54.877,63.417z M46.91,45.866c-2.307,0.214-4.313,1.295-4.776,3.386
	c-0.562,2.537,1.892,4.055,4.991,3.618c3.314-0.469,5.565-2.109,5.066-4.224C51.688,46.531,49.219,45.651,46.91,45.866z
	 M34.896,67.714c0.638,2.562,3.241,4.365,5.594,3.33c2.477-1.09,3.018-3.5,1.956-5.92c-1.13-2.572-3.08-3.713-5.237-3.027
	C35.509,62.636,34.247,65.11,34.896,67.714z M36.098,53.57c-1.012,1.134-1.71,3.349-0.585,4.585
	c1.127,1.237,3.469,1.168,4.845-0.501c1.372-1.667,1.231-3.626-0.116-4.741C38.895,51.799,37.113,52.435,36.098,53.57z
	 M153.142,54.31c0,9.09-3.816,16.002-12.254,16.002c-5.624,0-11.447-4.465-11.447-15.302c0-12.935,8.035-15.304,12.051-15.304
	C148.323,39.705,153.142,44.521,153.142,54.31z M200.341,57.356c-4.312,0-12.932,2.598-12.932,7.795
	c0,3.154,2.873,5.939,7.389,5.939c5.338,0,10.672-4.453,10.672-9.279C205.47,59.397,204.034,57.356,200.341,57.356z M45.642,89.19
	c0.338,1.713,1.399,5.309,2.949,7.758H9.921V60.282c1.272,0.895,3.087,1.748,5.611,2.397c9.033,2.323,16.887-0.848,16.887-0.848
	c-1.917,0.915-3.578,2.979-5.079,5.847c-1.501,2.869-2.798,6.982-4.553,10.096c-0.971,1.719-2.901,4.666-1.827,6.906
	c1.227,2.561,3.994,2.131,6.608,0.848c3.527-1.73,7.914-9.467,9.906-10.027c0.176,2.057-0.858,7.064-0.454,9.104
	c0.417,2.098,2.274,2.16,3.293,1.574c2.182-1.258,4.429-7.787,4.429-7.787S44.713,84.503,45.642,89.19z M225.319,38.928
	l13.895,35.485c1.545,4.414,5.514,6.143,8.162,6.143h5.074c4.189,0,7.057-2.111,8.82-6.523l12.273-30.874v53.79H102.335
	c4.079-2.771,6.612-7.506,6.612-12.609V37.774c0-5.185-2.073-7.67-6.427-7.67h-3.318c-3.316,0-6.012,2.902-6.012,6.633v41.655
	c0,3.68-0.717,6.082-4.135,8.664c-1.839,1.387-2.914,3.342-2.914,5.988c0,1.561,0.321,2.875,1.047,3.904H54.562
	c1.264-3.135,1.49-8.6,1.605-12.881c0.174-6.414-0.228-10.617-0.228-10.617s3.424-0.432,9.095,5.027
	c5.778,5.564,11.024,6.848,13.163,5.033c1.592-1.348,2.201-4.465-2.923-11.434c-5.144-7.004-10.06-9.707-10.06-9.707
	c1.27,0.186,5.173,0.836,7.577,0.729c2.402-0.105,4.078-0.754,4.078-2.844c0-4.244-11.211-6.771-11.211-6.771
	c2.191-2.719,10.659-4.876,13.466-6.255c2.655-1.303,3.318-2.688,3.053-4.114c-0.193-1.046-2.147-4.127-9.513-3.893
	c-7.364,0.234-15.48,6.16-15.48,6.16c-0.804-4.304,1.707-9.216,1.869-11.091c0.145-1.695-1.621-4.811-5.675-1.589
	c-3.958,3.145-5.333,10.051-5.333,10.051c-2.4-2.012-4.305-8.598-5.3-14.848c-0.139-0.87-0.85-5.608-3.333-5.754
	c-2.906-0.171-5.681,4.219-5.89,9.178c-0.292,6.884,4.272,13.962,4.272,13.962c-1.187-0.087-3.975-1.386-5.567-2.272
	c-1.527-0.852-2.919-2.201-4.688-2.448c-1.77-0.246-3.271,0.97-2.83,3.162c0.632,3.137,5.725,7.098,5.725,7.098
	c-3.647-0.375-11.348-0.672-15.957,0.404c-2.049,0.478-3.507,1.02-4.555,1.602V9.922h83.469c-0.99,1.098-1.588,2.625-1.588,4.719
	c0,3.496,0.999,7.244,9.745,7.244c4.746,0,8.744-1.75,8.744-7.495c0-1.67-0.4-3.24-1.484-4.468h45.437
	c-0.578,1.237-0.822,2.842-0.822,4.612v11.462c-0.209,3.936-1.037,5.607-4.146,5.607c-3.732,0-5.805-1.5-12.027-1.5
	c-8.915,0-22.182,5.342-22.182,25.403s13.685,25.215,22.39,25.215c7.672,0,8.293-2.625,13.477-2.625c3.316,0,4.354,1.5,9.535,1.5
	c4.768,0,6.842-2.062,6.842-6V14.534c0-1.77-0.213-3.375-0.791-4.612h107.025V30.64c-1.416-0.481-3.127-0.536-4.553-0.536
	c-5.598,0-7.121,1.533-9.326,8.824l-3.969,17.658c-0.883,3.262-3.592,4.987-4.916,4.987c-2.207,0-4.035-1.535-5.137-4.987
	l-4.854-20.727c-1.104-3.836-4.381-5.755-8.129-5.755h-2.963C226.61,30.104,222.452,31.637,225.319,38.928z M220.28,46.601
	c0-13.499-8.707-16.499-23.217-16.499c-16.586,0-20.939,7.125-20.939,10.499c0,3.187,3.109,3.75,6.012,3.75
	c8.707,0,8.084-6.187,15.963-6.187c3.938,0,7.256,2.438,7.256,6.187c0,2.063-2.074,4.5-8.916,5.25
	c-16.793,2.062-24.252,8.437-24.252,16.874c0,8.248,6.217,14.248,17.826,14.248c7.051,0,10.363-3,15.133-3
	c2.695,0,4.77,1.688,9.123,1.688c3.523,0,6.012-0.938,6.012-4.688V46.601z"/>
<g>
	<path fill="#1D1D1B" d="M31.676,155.18"/>
</g>
<rect x="1.049" y="103.071" fill="none" width="273.5" height="21.75"/>
<text transform="matrix(1 0 0 1 13.1904 115.4609)" display="none" opacity="0.8"><tspan x="0" y="0" display="inline" fill="#57AB27" font-family="'Titillium-Semibold'" font-size="17.5">Jugend des </tspan><tspan x="84.278" y="0" display="inline" fill="#57AB27" font-family="'Titillium-Semibold'" font-size="17.5">D</tspan><tspan x="94.638" y="0" display="inline" fill="#57AB27" font-family="'Titillium-Semibold'" font-size="17.5">eutschen Alpenvereins</tspan></text>
<rect x="1.049" y="192.821" fill="none" width="273.5" height="21.75"/>
<text transform="matrix(1 0 0 1 13.1904 205.2109)" display="none" opacity="0.8"><tspan x="0" y="0" display="inline" fill="#57AB27" font-family="'Titillium-Semibold'" font-size="17.5">Jugend des </tspan><tspan x="84.278" y="0" display="inline" fill="#57AB27" font-family="'Titillium-Semibold'" font-size="17.5">D</tspan><tspan x="94.638" y="0" display="inline" fill="#57AB27" font-family="'Titillium-Semibold'" font-size="17.5">eutschen Alpenvereins</tspan></text>
<g>
	<path d="M13.429,113.895c1.611,0,1.646-0.613,1.646-2.153v-8.33h1.875v8.295c0,2.608-0.648,3.886-3.521,3.886
		c-2.855,0-3.521-1.277-3.521-3.886l1.874,0.035C11.782,113.299,11.835,113.895,13.429,113.895z"/>
	<path d="M26.41,115.399h-1.892v-0.543c0,0-1.279,0.735-2.365,0.735c-2.505,0-3.031-1.295-3.031-4.375v-4.568h1.91v4.586
		c0,1.942,0.123,2.66,1.489,2.66c1.051,0,1.997-0.455,1.997-0.455v-6.791h1.892V115.399z"/>
	<path d="M28.127,116.939c0-0.893,0.438-1.435,1.331-2.117c-0.368-0.245-0.578-0.735-0.578-1.278c0-0.402,0.631-1.399,0.631-1.399
		c-0.648-0.386-1.261-1.051-1.261-2.626c0-2.205,1.489-3.045,3.503-3.045c0.806,0,1.787,0.228,1.787,0.228l2.715-0.07v1.54
		l-1.454-0.087c0.228,0.297,0.473,0.752,0.473,1.435c0,2.381-1.244,3.028-3.574,3.028c-0.175,0-0.613-0.035-0.771-0.07
		c0,0-0.246,0.595-0.246,0.822c0,0.561,0.193,0.665,1.892,0.683c2.768,0.018,3.626,0.596,3.626,2.608c0,2.064-1.699,2.87-4.046,2.87
		C29.511,119.46,28.127,118.935,28.127,116.939z M30.702,115.521c-0.49,0.403-0.701,0.7-0.701,1.243
		c0,0.805,0.578,1.138,2.172,1.138c1.419,0,2.12-0.351,2.12-1.208c0-0.945-0.456-1.05-1.875-1.067
		C31.876,115.627,30.702,115.521,30.702,115.521z M33.382,109.519c0-1.05-0.456-1.558-1.629-1.558c-1.121,0-1.612,0.508-1.612,1.558
		c0,1.067,0.491,1.558,1.612,1.558C32.927,111.076,33.382,110.586,33.382,109.519z"/>
	<path d="M44.297,113.771l0.035,1.418c0,0-1.997,0.402-3.539,0.402c-2.627,0-3.644-1.4-3.644-4.48c0-3.203,1.384-4.655,3.801-4.655
		c2.452,0,3.678,1.277,3.678,4.008l-0.123,1.365h-5.43c0.018,1.4,0.543,2.101,1.997,2.101
		C42.458,113.93,44.297,113.771,44.297,113.771z M40.951,108.031c-1.296,0-1.875,0.647-1.892,2.328h3.696
		C42.755,108.608,42.229,108.031,40.951,108.031z"/>
	<path d="M46.294,106.648h1.892v0.543c0,0,1.279-0.735,2.417-0.735c2.435,0,3.03,1.383,3.03,4.253v4.69h-1.892v-4.638
		c0-1.75-0.228-2.608-1.559-2.608c-1.016,0-1.979,0.455-1.979,0.455v6.791h-1.909V106.648z"/>
	<path d="M60.939,115.399v-0.455c0,0-1.279,0.647-2.347,0.647c-2.242,0-3.311-1.173-3.311-4.551c0-3.167,1.139-4.585,3.644-4.585
		c0.701,0,1.892,0.21,1.997,0.228v-3.676h1.91v12.392H60.939z M60.921,113.457v-5.181c-0.105-0.018-1.121-0.175-1.856-0.175
		c-1.296,0-1.857,0.944-1.857,2.939c0,2.24,0.613,2.854,1.682,2.854C59.888,113.895,60.921,113.457,60.921,113.457z"/>
	<path d="M73.903,115.399v-0.455c0,0-1.279,0.647-2.347,0.647c-2.242,0-3.311-1.173-3.311-4.551c0-3.167,1.139-4.585,3.644-4.585
		c0.701,0,1.892,0.21,1.997,0.228v-3.676h1.91v12.392H73.903z M73.885,113.457v-5.181c-0.105-0.018-1.121-0.175-1.856-0.175
		c-1.296,0-1.857,0.944-1.857,2.939c0,2.24,0.613,2.854,1.682,2.854C72.852,113.895,73.885,113.457,73.885,113.457z"/>
	<path d="M84.659,113.771l0.035,1.418c0,0-1.997,0.402-3.539,0.402c-2.627,0-3.644-1.4-3.644-4.48c0-3.203,1.384-4.655,3.801-4.655
		c2.452,0,3.678,1.277,3.678,4.008l-0.123,1.365h-5.43c0.018,1.4,0.543,2.101,1.997,2.101
		C82.82,113.93,84.659,113.771,84.659,113.771z M81.313,108.031c-1.296,0-1.875,0.647-1.892,2.328h3.696
		C83.118,108.608,82.592,108.031,81.313,108.031z"/>
	<path d="M89.617,108.171c-1.051,0-1.524,0.245-1.524,0.963c0,0.577,0.368,0.735,2.085,1.032c2.102,0.368,2.855,0.893,2.855,2.644
		c0,2.047-1.296,2.782-3.468,2.782c-1.208,0-3.241-0.385-3.241-0.385l0.07-1.593c0,0,2.102,0.28,2.995,0.28
		c1.261,0,1.752-0.263,1.752-1.033c0-0.612-0.298-0.805-2.032-1.085c-1.927-0.314-2.908-0.735-2.908-2.59
		c0-1.978,1.542-2.713,3.276-2.713c1.279,0,3.293,0.385,3.293,0.385l-0.035,1.593C92.735,108.451,90.668,108.171,89.617,108.171z"/>
	<path d="M98.604,103.411h4.152c3.871,0,4.799,2.064,4.799,5.793c0,3.798-0.841,6.195-4.799,6.195h-4.152V103.411z M102.756,105.108
		h-2.208v8.576h2.208c2.417,0,2.785-1.855,2.785-4.48C105.541,106.578,105.173,105.108,102.756,105.108z"/>
	<path d="M116.157,113.771l0.035,1.418c0,0-1.997,0.402-3.539,0.402c-2.627,0-3.644-1.4-3.644-4.48c0-3.203,1.384-4.655,3.801-4.655
		c2.452,0,3.678,1.277,3.678,4.008l-0.123,1.365h-5.43c0.018,1.4,0.543,2.101,1.997,2.101
		C114.318,113.93,116.157,113.771,116.157,113.771z M112.812,108.031c-1.296,0-1.875,0.647-1.892,2.328h3.696
		C114.616,108.608,114.09,108.031,112.812,108.031z"/>
	<path d="M125.354,115.399h-1.892v-0.543c0,0-1.279,0.735-2.365,0.735c-2.505,0-3.031-1.295-3.031-4.375v-4.568h1.91v4.586
		c0,1.942,0.123,2.66,1.489,2.66c1.051,0,1.997-0.455,1.997-0.455v-6.791h1.892V115.399z"/>
	<path d="M129.787,112.127c0,1.312,0.053,1.768,0.963,1.768c0.491,0,1.437-0.053,1.437-0.053l0.088,1.522
		c0,0-1.174,0.228-1.787,0.228c-1.979,0-2.592-0.735-2.592-3.255v-4.061h-1.121v-1.628h1.121v-2.538h1.892v2.538h2.417v1.628h-2.417
		V112.127z"/>
	<path d="M136.549,108.171c-1.051,0-1.524,0.245-1.524,0.963c0,0.577,0.368,0.735,2.085,1.032c2.102,0.368,2.855,0.893,2.855,2.644
		c0,2.047-1.296,2.782-3.468,2.782c-1.208,0-3.241-0.385-3.241-0.385l0.07-1.593c0,0,2.102,0.28,2.995,0.28
		c1.261,0,1.752-0.263,1.752-1.033c0-0.612-0.298-0.805-2.032-1.085c-1.927-0.314-2.908-0.735-2.908-2.59
		c0-1.978,1.542-2.713,3.276-2.713c1.279,0,3.293,0.385,3.293,0.385l-0.035,1.593C139.667,108.451,137.6,108.171,136.549,108.171z"
		/>
	<path d="M147.533,106.788l-0.07,1.506c0,0-1.384-0.141-2.05-0.141c-1.821,0-2.242,0.735-2.242,2.748c0,2.24,0.368,2.993,2.26,2.993
		c0.666,0,2.05-0.141,2.05-0.141l0.053,1.523c0,0-1.77,0.314-2.663,0.314c-2.697,0-3.626-1.33-3.626-4.69
		c0-3.133,1.051-4.445,3.661-4.445C145.834,106.456,147.533,106.788,147.533,106.788z"/>
	<path d="M149.197,103.008h1.909v4.096c0,0,1.296-0.647,2.399-0.647c2.436,0,3.031,1.383,3.031,4.253v4.69h-1.91v-4.638
		c0-1.75-0.21-2.608-1.559-2.608c-0.963,0-1.962,0.386-1.962,0.386v6.86h-1.909V103.008z"/>
	<path d="M165.313,113.771l0.035,1.418c0,0-1.997,0.402-3.539,0.402c-2.627,0-3.644-1.4-3.644-4.48c0-3.203,1.384-4.655,3.802-4.655
		c2.452,0,3.679,1.277,3.679,4.008l-0.123,1.365h-5.43c0.017,1.4,0.543,2.101,1.996,2.101
		C163.474,113.93,165.313,113.771,165.313,113.771z M161.968,108.031c-1.297,0-1.874,0.647-1.892,2.328h3.695
		C163.771,108.608,163.246,108.031,161.968,108.031z"/>
	<path d="M167.312,106.648h1.892v0.543c0,0,1.279-0.735,2.418-0.735c2.435,0,3.03,1.383,3.03,4.253v4.69h-1.893v-4.638
		c0-1.75-0.228-2.608-1.559-2.608c-1.016,0-1.979,0.455-1.979,0.455v6.791h-1.909V106.648z"/>
	<path d="M186.405,103.411l2.979,11.988h-1.962l-0.648-2.573h-4.607l-0.647,2.573h-1.944l2.96-11.988H186.405z M186.388,111.111
		l-1.471-6.073h-0.876l-1.489,6.073H186.388z"/>
	<path d="M192.712,103.008v12.392h-1.909v-12.392H192.712z"/>
	<path d="M196.846,106.648v0.543c0,0,1.209-0.735,2.26-0.735c2.277,0,3.346,1.295,3.346,4.48c0,3.605-1.227,4.655-3.924,4.655
		c-0.718,0-1.559-0.14-1.664-0.157v3.728h-1.909v-12.514H196.846z M196.863,108.644v5.163c0.088,0.018,0.929,0.14,1.542,0.14
		c1.629,0,2.102-0.857,2.102-3.01c0-2.048-0.648-2.783-1.734-2.783C197.845,108.153,196.863,108.644,196.863,108.644z"/>
	<path d="M210.913,113.771l0.035,1.418c0,0-1.997,0.402-3.539,0.402c-2.627,0-3.644-1.4-3.644-4.48c0-3.203,1.384-4.655,3.802-4.655
		c2.452,0,3.679,1.277,3.679,4.008l-0.123,1.365h-5.43c0.017,1.4,0.543,2.101,1.996,2.101
		C209.073,113.93,210.913,113.771,210.913,113.771z M207.567,108.031c-1.297,0-1.874,0.647-1.892,2.328h3.695
		C209.371,108.608,208.846,108.031,207.567,108.031z"/>
	<path d="M212.91,106.648h1.892v0.543c0,0,1.279-0.735,2.417-0.735c2.436,0,3.031,1.383,3.031,4.253v4.69h-1.893v-4.638
		c0-1.75-0.228-2.608-1.559-2.608c-1.016,0-1.979,0.455-1.979,0.455v6.791h-1.909V106.648z"/>
	<path d="M225.068,113.771h0.561l1.751-7.123h1.944l-2.276,8.751h-3.398l-2.26-8.751h1.997L225.068,113.771z"/>
	<path d="M237.226,113.771l0.035,1.418c0,0-1.997,0.402-3.539,0.402c-2.627,0-3.644-1.4-3.644-4.48c0-3.203,1.384-4.655,3.802-4.655
		c2.452,0,3.679,1.277,3.679,4.008l-0.123,1.365h-5.43c0.017,1.4,0.543,2.101,1.996,2.101
		C235.386,113.93,237.226,113.771,237.226,113.771z M233.88,108.031c-1.297,0-1.874,0.647-1.892,2.328h3.695
		C235.684,108.608,235.158,108.031,233.88,108.031z"/>
	<path d="M241.115,106.648v1.05c0,0,1.489-0.962,2.979-1.242v1.907c-1.595,0.315-2.961,0.928-2.961,0.928v6.108h-1.909v-8.751
		H241.115z"/>
	<path d="M252.029,113.771l0.035,1.418c0,0-1.997,0.402-3.539,0.402c-2.627,0-3.644-1.4-3.644-4.48c0-3.203,1.384-4.655,3.802-4.655
		c2.452,0,3.679,1.277,3.679,4.008l-0.123,1.365h-5.431c0.018,1.4,0.544,2.101,1.997,2.101
		C250.189,113.93,252.029,113.771,252.029,113.771z M248.684,108.031c-1.297,0-1.875,0.647-1.892,2.328h3.695
		C250.487,108.608,249.962,108.031,248.684,108.031z"/>
	<path d="M255.936,103.148v2.013h-1.909v-2.013H255.936z M255.936,106.648v8.751h-1.909v-8.751H255.936z"/>
	<path d="M258.073,106.648h1.892v0.543c0,0,1.279-0.735,2.418-0.735c2.435,0,3.03,1.383,3.03,4.253v4.69h-1.893v-4.638
		c0-1.75-0.228-2.608-1.559-2.608c-1.016,0-1.979,0.455-1.979,0.455v6.791h-1.909V106.648z"/>
	<path d="M270.424,108.171c-1.051,0-1.523,0.245-1.523,0.963c0,0.577,0.367,0.735,2.084,1.032c2.103,0.368,2.855,0.893,2.855,2.644
		c0,2.047-1.296,2.782-3.469,2.782c-1.208,0-3.24-0.385-3.24-0.385l0.07-1.593c0,0,2.102,0.28,2.995,0.28
		c1.262,0,1.752-0.263,1.752-1.033c0-0.612-0.298-0.805-2.032-1.085c-1.927-0.314-2.908-0.735-2.908-2.59
		c0-1.978,1.542-2.713,3.276-2.713c1.278,0,3.293,0.385,3.293,0.385l-0.035,1.593C273.542,108.451,271.476,108.171,270.424,108.171z
		"/>
	<path d="M9.912,122.911h1.944v10.256h4.782v1.732H9.912V122.911z"/>
	<path d="M25.083,133.64l-0.053,1.452c-1.068,0-1.682-0.14-2.33-0.647c0,0-1.401,0.647-2.82,0.647c-1.734,0-2.61-0.963-2.61-2.782
		c0-1.855,1.016-2.485,2.89-2.644l2.26-0.192v-0.63c0-0.963-0.42-1.26-1.279-1.26c-1.173,0-3.293,0.175-3.293,0.175l-0.07-1.348
		c0,0,1.91-0.455,3.521-0.455c2.137,0,3.013,0.893,3.013,2.888v3.99C24.347,133.359,24.575,133.569,25.083,133.64z M19.179,132.257
		c0,0.787,0.333,1.277,1.069,1.277c0.998,0,2.172-0.385,2.172-0.385v-2.328l-2.032,0.192
		C19.582,131.084,19.179,131.469,19.179,132.257z"/>
	<path d="M26.537,126.148h1.892v0.543c0,0,1.279-0.735,2.417-0.735c2.435,0,3.03,1.383,3.03,4.253v4.69h-1.892v-4.638
		c0-1.75-0.228-2.608-1.559-2.608c-1.016,0-1.979,0.455-1.979,0.455v6.791h-1.909V126.148z"/>
	<path d="M41.182,134.899v-0.455c0,0-1.279,0.647-2.347,0.647c-2.242,0-3.311-1.173-3.311-4.551c0-3.167,1.139-4.585,3.644-4.585
		c0.701,0,1.892,0.21,1.997,0.228v-3.676h1.91v12.392H41.182z M41.165,132.957v-5.181c-0.105-0.018-1.121-0.175-1.856-0.175
		c-1.296,0-1.857,0.944-1.857,2.939c0,2.24,0.613,2.854,1.682,2.854C40.131,133.395,41.165,132.957,41.165,132.957z"/>
	<path d="M51.938,133.271l0.035,1.418c0,0-1.997,0.402-3.539,0.402c-2.627,0-3.644-1.4-3.644-4.48c0-3.203,1.384-4.655,3.801-4.655
		c2.452,0,3.678,1.277,3.678,4.008l-0.123,1.365h-5.43c0.018,1.4,0.543,2.101,1.997,2.101
		C50.099,133.43,51.938,133.271,51.938,133.271z M48.593,127.531c-1.296,0-1.875,0.647-1.892,2.328h3.696
		C50.397,128.108,49.871,127.531,48.593,127.531z"/>
	<path d="M56.896,127.671c-1.051,0-1.524,0.245-1.524,0.963c0,0.577,0.368,0.735,2.085,1.032c2.102,0.368,2.855,0.893,2.855,2.644
		c0,2.047-1.296,2.782-3.468,2.782c-1.208,0-3.241-0.385-3.241-0.385l0.07-1.593c0,0,2.102,0.28,2.995,0.28
		c1.261,0,1.752-0.263,1.752-1.033c0-0.612-0.298-0.805-2.032-1.085c-1.927-0.314-2.908-0.735-2.908-2.59
		c0-1.978,1.542-2.713,3.276-2.713c1.279,0,3.293,0.385,3.293,0.385l-0.035,1.593C60.014,127.951,57.947,127.671,56.896,127.671z"/>
	<path d="M64.727,133.271h0.561l1.752-7.123h1.944l-2.277,8.751h-3.398l-2.26-8.751h1.997L64.727,133.271z"/>
	<path d="M76.885,133.271l0.035,1.418c0,0-1.997,0.402-3.538,0.402c-2.628,0-3.644-1.4-3.644-4.48c0-3.203,1.384-4.655,3.801-4.655
		c2.452,0,3.678,1.277,3.678,4.008l-0.123,1.365h-5.43c0.018,1.4,0.543,2.101,1.997,2.101
		C75.046,133.43,76.885,133.271,76.885,133.271z M73.54,127.531c-1.296,0-1.875,0.647-1.892,2.328h3.696
		C75.344,128.108,74.818,127.531,73.54,127.531z"/>
	<path d="M80.774,126.148v1.05c0,0,1.489-0.962,2.978-1.242v1.907c-1.594,0.315-2.96,0.928-2.96,0.928v6.108h-1.909v-8.751H80.774z"
		/>
	<path d="M92.511,130.401c0,3.623-1.138,4.69-4.274,4.69c-0.929,0-3.206-0.21-3.206-0.21v-12.374h1.892v3.974
		c0,0,1.209-0.525,2.19-0.525C91.496,125.956,92.511,127.129,92.511,130.401z M90.567,130.401c0-1.978-0.508-2.748-1.682-2.748
		c-0.928,0-1.962,0.351-1.962,0.351v5.32c0,0,0.963,0.07,1.314,0.07C90.182,133.395,90.567,132.537,90.567,130.401z"/>
	<path d="M101.498,133.64l-0.053,1.452c-1.068,0-1.682-0.14-2.33-0.647c0,0-1.401,0.647-2.82,0.647c-1.734,0-2.61-0.963-2.61-2.782
		c0-1.855,1.016-2.485,2.89-2.644l2.26-0.192v-0.63c0-0.963-0.42-1.26-1.279-1.26c-1.174,0-3.293,0.175-3.293,0.175l-0.07-1.348
		c0,0,1.909-0.455,3.521-0.455c2.137,0,3.013,0.893,3.013,2.888v3.99C100.762,133.359,100.99,133.569,101.498,133.64z
		 M95.595,132.257c0,0.787,0.333,1.277,1.068,1.277c0.999,0,2.172-0.385,2.172-0.385v-2.328l-2.032,0.192
		C95.998,131.084,95.595,131.469,95.595,132.257z"/>
	<path d="M102.953,126.148h1.892v0.543c0,0,1.279-0.735,2.417-0.735c2.435,0,3.03,1.383,3.03,4.253v4.69H108.4v-4.638
		c0-1.75-0.228-2.608-1.559-2.608c-1.016,0-1.979,0.455-1.979,0.455v6.791h-1.909V126.148z"/>
	<path d="M117.598,134.899v-0.455c0,0-1.279,0.647-2.347,0.647c-2.242,0-3.311-1.173-3.311-4.551c0-3.167,1.138-4.585,3.644-4.585
		c0.701,0,1.892,0.21,1.997,0.228v-3.676h1.91v12.392H117.598z M117.58,132.957v-5.181c-0.105-0.018-1.121-0.175-1.856-0.175
		c-1.296,0-1.857,0.944-1.857,2.939c0,2.24,0.613,2.854,1.682,2.854C116.547,133.395,117.58,132.957,117.58,132.957z"/>
	<path d="M133.749,126.026c0,1.452-0.455,2.17-1.418,2.695c1.033,0.402,1.716,1.138,1.716,2.782c0,2.45-1.489,3.396-3.818,3.396
		h-4.695v-11.988h4.555C132.471,122.911,133.749,123.804,133.749,126.026z M127.478,128.021h2.575c1.191,0,1.717-0.596,1.717-1.768
		c0-1.155-0.596-1.663-1.787-1.663h-2.505V128.021z M127.478,133.219h2.645c1.209,0,1.927-0.385,1.927-1.819
		c0-1.365-1.016-1.733-1.962-1.733h-2.61V133.219z"/>
	<path d="M143.104,133.64l-0.052,1.452c-1.069,0-1.682-0.14-2.33-0.647c0,0-1.401,0.647-2.82,0.647c-1.734,0-2.61-0.963-2.61-2.782
		c0-1.855,1.016-2.485,2.89-2.644l2.26-0.192v-0.63c0-0.963-0.42-1.26-1.279-1.26c-1.173,0-3.293,0.175-3.293,0.175l-0.07-1.348
		c0,0,1.91-0.455,3.521-0.455c2.137,0,3.013,0.893,3.013,2.888v3.99C142.368,133.359,142.596,133.569,143.104,133.64z
		 M137.201,132.257c0,0.787,0.333,1.277,1.069,1.277c0.998,0,2.172-0.385,2.172-0.385v-2.328l-2.032,0.192
		C137.604,131.084,137.201,131.469,137.201,132.257z"/>
	<path d="M147.378,133.271h0.474l1.856-7.123h1.892l-3.328,12.514h-1.874l1.051-3.763h-1.506l-2.295-8.751h1.874L147.378,133.271z"
		/>
	<path d="M159.466,133.271l0.035,1.418c0,0-1.997,0.402-3.539,0.402c-2.627,0-3.644-1.4-3.644-4.48c0-3.203,1.384-4.655,3.802-4.655
		c2.452,0,3.679,1.277,3.679,4.008l-0.123,1.365h-5.43c0.017,1.4,0.543,2.101,1.996,2.101
		C157.626,133.43,159.466,133.271,159.466,133.271z M156.12,127.531c-1.297,0-1.874,0.647-1.892,2.328h3.695
		C157.924,128.108,157.398,127.531,156.12,127.531z"/>
	<path d="M163.355,126.148v1.05c0,0,1.489-0.962,2.979-1.242v1.907c-1.595,0.315-2.961,0.928-2.961,0.928v6.108h-1.909v-8.751
		H163.355z"/>
	<path d="M167.613,126.148h1.892v0.543c0,0,1.279-0.735,2.417-0.735c2.436,0,3.031,1.383,3.031,4.253v4.69h-1.893v-4.638
		c0-1.75-0.228-2.608-1.559-2.608c-1.016,0-1.979,0.455-1.979,0.455v6.791h-1.909V126.148z"/>
</g>
</svg>
